<?xml version="1.0" encoding="UTF-8"?>
<svg width="42px" height="48px" viewBox="0 0 42 48" version="1.1" xmlns="http://www.w3.org/2000/svg" xmlns:xlink="http://www.w3.org/1999/xlink">
    <!-- Generator: Sketch 50.2 (55047) - http://www.bohemiancoding.com/sketch -->
    <title>Android Logo</title>
    <desc>Logo for Android.</desc>
    <defs></defs>
    <g id="Page-1" stroke="none" stroke-width="1" fill="none" fill-rule="evenodd">
        <g id="🖥-Extra-Large-/-12-Col" transform="translate(-1263.000000, -77.000000)" fill="#FFFFFF">
            <g id="Group-4" transform="translate(1163.000000, 77.000000)">
                <path d="M126.727009,9.60090475 C125.935377,9.60090475 125.294532,8.97719462 125.294532,8.20672916 C125.294532,7.43626371 125.935377,6.81537579 126.727009,6.81537579 C127.518641,6.81537579 128.159486,7.43626371 128.159486,8.20672916 C128.159486,8.97719462 127.518641,9.60090475 126.727009,9.60090475 L126.727009,9.60090475 Z M115.272991,9.60090475 C114.481359,9.60090475 113.840514,8.97719462 113.840514,8.20672916 C113.840514,7.43626371 114.481359,6.81537579 115.272991,6.81537579 C116.064623,6.81537579 116.705468,7.43626371 116.705468,8.20672916 C116.705468,8.97719462 116.064623,9.60090475 115.272991,9.60090475 L115.272991,9.60090475 Z M127.573737,4.01855796 C131.62179,5.85582174 134.362055,9.33561628 134.362055,13.3177656 L107.637945,13.3177656 C107.637945,9.33561628 110.37821,5.85582174 114.429163,4.01855796 L113.892709,3.23398142 L113.359155,2.46069374 L112.170257,0.722207583 C112.025269,0.507719031 112.086164,0.219852816 112.303645,0.0787419268 C112.524027,-0.0623689627 112.819801,-0.00592460691 112.967688,0.208563945 L114.243579,2.07122769 L114.780033,2.85298201 L115.322287,3.64884743 C117.047639,2.99691512 118.973074,2.63284903 121,2.63284903 C123.029826,2.63284903 124.952361,2.99691512 126.677713,3.64884743 L127.222867,2.85298201 L129.038111,0.208563945 C129.180199,-0.00592460691 129.478873,-0.0651911805 129.696355,0.0787419268 C129.916736,0.219852816 129.97763,0.507719031 129.829743,0.722207583 L128.640845,2.46069374 L128.107291,3.23398142 L127.573737,4.01855796 Z M107.843828,15.1747849 L134.362055,15.1747849 L134.362055,35.6132861 C134.362055,37.2360613 133.010771,38.5568593 131.340514,38.5568593 L129.157001,38.5568593 C129.232394,38.8023922 129.275891,39.059214 129.275891,39.3301469 L129.275891,45.214471 C129.275891,46.7525797 127.991301,48 126.408036,48 C124.827672,48 123.545982,46.7525797 123.545982,45.214471 L123.545982,39.3301469 C123.545982,39.059214 123.586578,38.8023922 123.659072,38.5568593 L118.340928,38.5568593 C118.413422,38.8023922 118.456918,39.059214 118.456918,39.3301469 L118.456918,45.214471 C118.456918,46.7525797 117.172328,48 115.591964,48 C114.011599,48 112.727009,46.7525797 112.727009,45.214471 L112.727009,39.3301469 C112.727009,39.059214 112.767606,38.8023922 112.842999,38.5568593 L110.662386,38.5568593 C108.992129,38.5568593 107.637945,37.2360613 107.637945,35.6132861 L107.637945,15.1747849 L107.843828,15.1747849 Z M102.864954,15.1747849 C104.445319,15.1747849 105.727009,16.4222051 105.727009,17.9603138 L105.727009,29.884184 C105.727009,31.4222927 104.445319,32.669713 102.864954,32.669713 C101.28169,32.669713 100,31.4222927 100,29.884184 L100,17.9603138 C100,16.4222051 101.28169,15.1747849 102.864954,15.1747849 Z M139.137945,15.1747849 C140.71831,15.1747849 142,16.4222051 142,17.9603138 L142,29.884184 C142,31.4222927 140.71831,32.669713 139.137945,32.669713 C137.554681,32.669713 136.272991,31.4222927 136.272991,29.884184 L136.272991,17.9603138 C136.272991,16.4222051 137.554681,15.1747849 139.137945,15.1747849 Z" id="Android"></path>
            </g>
        </g>
    </g>
</svg>