<?xml version="1.0" encoding="UTF-8"?>
<svg width="56px" height="64px" viewBox="0 0 56 64" version="1.1" xmlns="http://www.w3.org/2000/svg" xmlns:xlink="http://www.w3.org/1999/xlink">
    <!-- Generator: Sketch 50.2 (55047) - http://www.bohemiancoding.com/sketch -->
    <title>expert</title>
    <desc>Created with Sketch.</desc>
    <defs></defs>
    <g id="Page-1" stroke="none" stroke-width="1" fill="none" fill-rule="evenodd">
        <g id="🖥-Extra-Large-/-12-Col" transform="translate(-606.000000, -1555.000000)" fill="#000000" fill-rule="nonzero">
            <g id="Group-12" transform="translate(0.000000, 1024.000000)">
                <g id="Group-8" transform="translate(606.000000, 110.000000)">
                    <g id="Group-6" transform="translate(0.000000, 421.666667)">
                        <g id="expert">
                            <path d="M45.2117306,21.8400537 C44.9911158,21.1782793 44.4044366,20.6959934 43.6986644,20.596013 L34.9638793,19.3581615 L31.0572399,11.6373006 C30.7414484,11.0131378 30.0898537,10.6179775 29.3762721,10.6179775 C28.6626906,10.6179775 28.0115839,11.0131378 27.6957925,11.6373006 L23.7891529,19.3581615 L15.0543678,20.596013 C14.3481076,20.6959934 13.7619164,21.1782793 13.5413017,21.8400537 C13.3206867,22.5023043 13.5046952,23.228828 14.015233,23.7144466 L20.3359453,29.7246918 L18.8438668,38.2106402 C18.7233095,38.8966957 19.0122564,39.5898925 19.589662,39.9988597 C20.1665795,40.4078267 20.9318982,40.4616256 21.5634812,40.1378798 L29.3762721,36.1315258 L37.1890629,40.1378798 C37.4633671,40.2788044 37.7630519,40.3483146 38.0612724,40.3483146 C38.0637128,40.3483146 38.0661532,40.3483146 38.0685936,40.3483146 C39.1013835,40.3454581 39.9379626,39.5279999 39.9379626,38.5201031 C39.9379626,38.3796545 39.9218558,38.2430149 39.8911064,38.1116121 L38.416599,29.7246918 L44.7373111,23.7144466 C45.2483371,23.228828 45.4318574,22.5023043 45.2117306,21.8400537 Z M35.0941983,27.7769802 C34.6524806,28.1968974 34.4509011,28.8020164 34.5553515,29.395233 L35.5720344,35.177904 L30.2484816,32.4474891 C29.9751535,32.3075168 29.6759569,32.2375305 29.3762721,32.2375305 C29.0770755,32.2375305 28.7773908,32.3075168 28.5040627,32.4474891 L23.1805099,35.177904 L24.1971928,29.395233 C24.3016431,28.8020164 24.1000637,28.1968974 23.658346,27.7769802 L19.3514761,23.6820721 L25.3031954,22.8384286 C25.9137908,22.751779 26.4414117,22.3780431 26.7147398,21.8381494 L29.3762721,16.5772804 L32.0382926,21.8381494 C32.3116207,22.3780431 32.8392415,22.751779 33.449837,22.8384286 L39.4015562,23.6820721 L35.0941983,27.7769802 Z" id="Shape"></path>
                            <path d="M29.4373438,0 C15.3294417,0 3.83224764,11.3001252 3.66314278,25.2558517 L0.594543274,34.1339722 C-0.248073937,36.5727996 -0.1928363,38.7193909 0.746204644,40.0238801 C1.3092416,40.8054199 2.17802398,41.2533875 3.13063195,41.2533875 L3.66120462,41.2533875 L3.66120462,44.3502274 C3.66120462,48.0930633 6.73125778,51.1379928 10.5043803,51.1379928 C12.2259552,51.1379928 13.6262793,52.5275574 13.6262793,54.2348328 L13.6262793,56.2117538 C13.6262793,59.9545898 16.6958479,63 20.4689704,63 L34.4198812,63 C38.1930037,63 41.2630569,59.9545898 41.2630569,56.2117538 L41.2630569,48.28965 C45.2149751,46.2637024 48.5718766,43.2605896 51.0212324,39.5480347 C53.7637358,35.3908768 55.2134831,30.5574417 55.2134831,25.5687561 C55.2134831,11.4702759 43.6503915,0 29.4373438,0 Z M38.625699,45.4595719 C37.9647848,45.7604599 37.5412958,46.416069 37.5412958,47.1370468 L37.5412958,56.2117538 C37.5412958,57.9195099 36.1409716,59.3085938 34.4198812,59.3085938 L20.4689704,59.3085938 C18.74788,59.3085938 17.3475558,57.9195099 17.3475558,56.2117538 L17.3475558,54.2348328 C17.3475558,50.4919967 14.2775027,47.4470672 10.5043803,47.4470672 C8.78280537,47.4470672 7.38248118,46.0575028 7.38248118,44.3502274 L7.38248118,39.4076843 C7.38248118,38.3887024 6.54955479,37.5619812 5.5218429,37.5619812 L3.73146306,37.5619812 C3.69996792,37.1500626 3.74454571,36.4031295 4.1147352,35.331276 L7.28218112,26.1676483 C7.34856336,25.9749069 7.38248118,25.7725525 7.38248118,25.5692367 C7.38248118,13.5058365 17.2763284,3.69140625 29.4373438,3.69140625 C41.5983594,3.69140625 51.4922066,13.5058365 51.4922066,25.5692367 C51.4922066,34.092636 46.4418334,41.9003449 38.625699,45.4595719 Z" id="Shape"></path>
                        </g>
                    </g>
                </g>
            </g>
        </g>
    </g>
</svg>