<?xml version="1.0" encoding="UTF-8"?>
<svg width="45px" height="64px" viewBox="0 0 45 64" version="1.1" xmlns="http://www.w3.org/2000/svg" xmlns:xlink="http://www.w3.org/1999/xlink">
    <!-- Generator: Sketch 50.2 (55047) - http://www.bohemiancoding.com/sketch -->
    <title>On-Demand Click Icon</title>
    <desc>On-Demand Click Icon</desc>
    <defs></defs>
    <g id="Page-1" stroke="none" stroke-width="1" fill="none" fill-rule="evenodd">
        <g id="🖥-Extra-Large-/-12-Col" transform="translate(-606.000000, -1377.000000)" fill="#000000" fill-rule="nonzero">
            <g id="Group-12" transform="translate(0.000000, 1024.000000)">
                <g id="Group-8" transform="translate(606.000000, 110.000000)">
                    <g id="Group-5" transform="translate(0.000000, 243.333333)">
                        <g id="on-demand-click">
                            <g id="Group" transform="translate(22.500000, 31.500000) scale(-1, 1) rotate(-180.000000) translate(-22.500000, -31.500000) ">
                                <path d="M18.7630939,62.6576739 C18.2775472,62.5406225 17.851245,62.190108 17.6747997,61.7666762 C17.5569548,61.4890789 17.5131654,59.9117634 17.5421437,56.5230297 L17.585933,51.6740319 L17.9684459,51.2940946 C18.2331139,51.0312086 18.5711935,50.8853741 19.041929,50.84124 C19.6594877,50.7683227 19.7477104,50.7977455 20.233257,51.2793832 L20.7477819,51.7904436 L20.7477819,56.6253697 C20.7477819,61.7519648 20.7039926,62.1319021 20.0420006,62.4529939 C19.6749428,62.6436022 19.1011734,62.7453026 18.7630939,62.6576739 Z" id="Shape"></path>
                                <path d="M31.7034917,58.2321079 C31.2475673,57.9839334 25.0127361,51.7904436 24.7770464,51.3523004 C24.1594877,50.1984168 24.9238695,49.0445331 26.3064539,49.0445331 C26.8068117,49.0445331 27.0418575,49.2492131 30.4091299,52.5938127 C33.8794362,56.0407524 33.9824699,56.1578037 33.9824699,56.7277097 C33.9824699,57.399316 33.7029908,57.866882 33.1002433,58.173902 C32.6005295,58.4367879 32.1156268,58.4514993 31.7034917,58.2321079 Z" id="Shape"></path>
                                <path d="M5.38093875,57.2387701 C4.55731254,56.8882556 4.14582141,55.9096292 4.48390097,55.1497546 C4.58693475,54.8868687 6.20456497,53.1777904 8.05724098,51.3523004 L11.4245135,48.0224122 L12.0871494,48.0224122 C12.8373641,48.0224122 13.2926445,48.2852981 13.6313681,48.9281213 C14.1021036,49.8191191 13.9546365,50.0237991 10.1900401,53.7630474 C7.20463652,56.7283493 6.61670006,57.2394098 6.19039782,57.2976157 C5.91091872,57.3411102 5.54321694,57.312327 5.38093875,57.2387701 Z" id="Shape"></path>
                                <path d="M17.9980681,47.1755486 C16.5420721,46.6644881 15.6308672,45.8169849 14.9688752,44.4002153 C14.6456068,43.7138976 14.6456068,43.6403407 14.5715512,32.7001932 L14.4981397,21.672417 L13.4246566,23.5420411 C12.821909,24.5648016 12.1013165,25.6310566 11.8070263,25.9227257 C10.6897539,27.0471866 8.83643389,27.5147525 7.30702633,27.0766094 C5.76280767,26.6237548 4.86576989,25.8056743 4.35124499,24.3601216 C4.05695478,23.5714639 4.02797653,21.6429942 4.27783343,20.7085019 C4.99842587,17.9625914 8.20406411,10.6740635 10.2924299,7.05186663 C12.2629508,3.61963839 14.5567401,0.624913714 15.5271895,0.157347772 C16.6302948,-0.368424052 17.9092015,0.551996454 17.7475673,1.764086 C17.7031339,2.17280643 17.4680882,2.55274374 16.8943188,3.22498971 C14.0415713,6.45317754 11.0413566,12.0032045 8.14481969,19.3940724 C7.61548369,20.7232133 7.46866056,21.3219024 7.40941614,22.2570343 C7.33600458,23.410918 7.33600458,23.4403407 7.7326846,23.7467211 C8.2323984,24.1413698 8.83578993,24.1554416 9.30588151,23.7761439 C9.51194906,23.615598 10.7618775,21.6289225 12.0852175,19.3652893 C13.3937464,17.0869447 14.6146966,15.0273519 14.7763309,14.764466 C15.3642673,13.8734682 16.4673726,13.7129223 17.2465655,14.4139514 L17.7321122,14.8373832 L17.8055238,28.9910073 C17.8789353,44.4008549 17.835146,43.4804344 18.7321837,44.0062063 C19.3497424,44.3714322 20.2319691,44.2255977 20.8057384,43.6556917 L21.2616629,43.2028371 L21.3350744,33.2266046 C21.4232971,22.0382825 21.3498855,22.6369716 22.4967802,22.3011684 C22.9675157,22.1700453 23.1439611,22.1700453 23.5998855,22.3887971 C24.5407127,22.8416516 24.5703349,22.9580634 24.5703349,27.7929895 C24.5703349,32.4232355 24.5999571,32.6861214 25.3347167,33.1824705 C25.7468517,33.4747791 26.6580567,33.4747791 27.2170149,33.1971818 C28.0696193,32.7590387 28.0992416,32.56907 28.0992416,27.471258 C28.0992416,24.0678129 28.157842,22.7239606 28.290498,22.4610747 C28.3935318,22.2563947 28.7168002,21.9787974 29.0407127,21.8182515 C29.7909273,21.4530256 30.6287207,21.672417 31.0408558,22.3587347 C31.3055238,22.7821665 31.335146,23.1186093 31.335146,26.3755803 C31.335146,30.2753744 31.3937464,30.5823945 32.2173726,31.0058263 C33.0995993,31.4586809 34.2316829,31.1516608 34.643818,30.3482917 C34.8202633,29.9977771 34.8646966,29.2673253 34.8646966,26.4043634 C34.8646966,22.533992 34.9232971,22.2269719 35.7469233,21.8035401 C36.2910704,21.5259428 36.6729393,21.5259428 37.2177304,21.8035401 C37.9673011,22.1834774 38.0999571,22.6504037 38.0999571,24.9146765 C38.0999571,26.7843007 38.1295793,26.9889807 38.4380366,27.4411957 C38.614482,27.7040816 39.011806,28.0111016 39.3054522,28.1275134 C40.0846451,28.4338938 40.8348598,28.0398847 41.3204064,27.0906811 C41.6732971,26.4043634 41.6732971,26.3020234 41.7467086,21.9787974 C41.8793646,13.9451062 41.2759731,7.79575061 39.9970664,4.01300782 C39.7613766,3.29726734 39.5707642,2.52332098 39.5707642,2.27514645 C39.5707642,1.67645736 40.3943904,0.843665495 41.0119491,0.843665495 C42.1298655,0.843665495 42.5857899,1.34001457 43.1737264,3.26848422 C44.5414997,7.67933884 45.0856468,13.1570881 44.9826131,21.6577056 C44.9240126,26.7408062 44.9092015,26.9454862 44.5711219,27.7923498 C44.1448197,28.9020994 43.7178735,29.5449226 43.0120922,30.2318799 C41.8941757,31.298135 40.1149113,31.7362781 38.6003148,31.3275577 L37.8501002,31.1375891 L37.6736548,31.605155 C37.3800086,32.4085241 36.2627361,33.5035623 35.2330424,34.0152623 C34.4538495,34.3951996 34.1157699,34.4681169 33.2180882,34.4828283 C32.5857184,34.4828283 31.879937,34.3804883 31.483257,34.2493651 C30.8656983,34.0299737 30.821265,34.0299737 30.689253,34.2640765 C30.6158414,34.3958393 30.2629508,34.8192711 29.9094161,35.184497 C28.7773326,36.3818752 26.9536348,36.9223584 25.2039926,36.5865552 L24.5864339,36.4547924 L24.5420006,40.0917007 C24.4982112,43.6556917 24.4982112,43.728609 24.1156983,44.5319781 C23.3068832,46.2410563 21.7188752,47.2926 19.8069548,47.39494 C19.0573841,47.4384345 18.5570263,47.3648776 17.9980681,47.1755486 Z" id="Shape"></path>
                                <path d="M28.1597739,44.7507299 C27.5718374,44.1667522 27.4977819,43.5386403 27.9537064,42.8081885 C28.4096308,42.0636649 28.8211219,42.0048194 34.0120922,42.0636649 L38.6737264,42.1071594 L39.1148397,42.5305912 C39.3498855,42.749343 39.5849313,43.1004971 39.6441757,43.3045375 C39.7613766,43.815598 39.4677304,44.6042557 39.0266171,44.9547703 C38.6589153,45.2323676 38.4386806,45.2470789 33.6592015,45.2470789 L28.6594877,45.2470789 L28.1597739,44.7507299 Z" id="Shape"></path>
                                <path d="M0.954994276,44.020278 C-0.177089296,43.5239289 -0.324556382,42.0630252 0.660704064,41.2743675 C0.940183171,41.0409043 1.45470807,41.0114816 6.01330853,41.0114816 L11.0722667,41.0114816 L11.498569,41.4349134 C11.8366485,41.7854279 11.9248712,41.990108 11.9248712,42.5011684 C11.9248712,43.2604034 11.6157699,43.7426807 10.9544219,44.020278 C10.2486405,44.3125867 1.63115341,44.3125867 0.954994276,44.020278 Z" id="Shape"></path>
                            </g>
                        </g>
                    </g>
                </g>
            </g>
        </g>
    </g>
</svg>